# xmcd CD database file
#
# Track frame offsets:
#	150
#	19957
#	33652
#	53412
#	75105
#	91072
#	111852
#	130795
#	142545
#	154980
#	176555
#
# Disc length: 2771 seconds
#
# Revision: 5
# Processed by: cddbd v1.5.2PL0 Copyright (c) Steve Scherf et al.
# Submitted via: CDex 1.51
#
DISCID=780ad10b
DTITLE=Doyle Bramhall - Bird Nest On The Ground
DYEAR=1994
DGENRE=Blues
TTITLE0=Bird Nest On The Ground
TTITLE1=Change It
TTITLE2=Other Side Of Love
TTITLE3=The Hunter
TTITLE4=I'm In The Mood
TTITLE5=She's Gone
TTITLE6=I Can See Clearly Now
TTITLE7=(Marie's The Name) His Latest Flame
TTITLE8=Too Sorry
TTITLE9=I Know
TTITLE10=Take Your Time, Son
EXTD=As Heard on BluesfestRadio.com YEAR: 1994
EXTT0=
EXTT1=
EXTT2=
EXTT3=
EXTT4=
EXTT5=
EXTT6=
EXTT7=
EXTT8=
EXTT9=
EXTT10=
PLAYORDER=
